<svg xmlns="http://www.w3.org/2000/svg" xmlns:xlink="http://www.w3.org/1999/xlink" viewBox="0 0 750 1335"><defs><style>.cls-1{fill:#8a934c;}.cls-2{fill:url(#Unbenannter_Verlauf_19);}.cls-3{fill:#f7931e;}.cls-4{fill:#80d87d;}.cls-5{fill:#c1272d;}.cls-6{fill:#f15a24;}.cls-7{fill:#754c24;}</style><linearGradient id="Unbenannter_Verlauf_19" x1="375" y1="793.5" x2="375" gradientUnits="userSpaceOnUse"><stop offset="0" stop-color="#c7cb9e"/><stop offset="1" stop-color="#7cabe2"/></linearGradient></defs><title>background2Element 3</title><g id="Ebene_2" data-name="Ebene 2"><g id="Background"><rect class="cls-1" y="794" width="750" height="541"/><rect class="cls-2" width="750" height="793.5"/></g><g id="Sun"><circle class="cls-3" cx="616.5" cy="113.5" r="84"/></g><g id="Autumn_details" data-name="Autumn details"><polygon class="cls-4" points="529.36 1133.91 525.22 1168.5 533.5 1168.5 529.36 1133.91"/><polygon class="cls-4" points="549.36 1144.91 545.22 1179.5 553.5 1179.5 549.36 1144.91"/><polygon class="cls-4" points="542.36 1154.91 538.22 1189.5 546.5 1189.5 542.36 1154.91"/><polygon class="cls-4" points="592.36 1043.91 588.22 1078.5 596.5 1078.5 592.36 1043.91"/><polygon class="cls-4" points="602.36 1033.91 598.22 1068.5 606.5 1068.5 602.36 1033.91"/><polygon class="cls-4" points="613.36 1046.91 609.22 1081.5 617.5 1081.5 613.36 1046.91"/><polygon class="cls-4" points="690.36 1175.91 686.22 1210.5 694.5 1210.5 690.36 1175.91"/><polygon class="cls-4" points="700.36 1165.91 696.22 1200.5 704.5 1200.5 700.36 1165.91"/><polygon class="cls-4" points="711.36 1178.91 707.22 1213.5 715.5 1213.5 711.36 1178.91"/><polygon class="cls-4" points="372.36 1244.91 368.22 1279.5 376.5 1279.5 372.36 1244.91"/><polygon class="cls-4" points="382.36 1234.91 378.22 1269.5 386.5 1269.5 382.36 1234.91"/><polygon class="cls-4" points="393.36 1247.91 389.22 1282.5 397.5 1282.5 393.36 1247.91"/><polygon class="cls-4" points="228.36 1119.91 224.22 1154.5 232.5 1154.5 228.36 1119.91"/><polygon class="cls-4" points="238.36 1109.91 234.22 1144.5 242.5 1144.5 238.36 1109.91"/><polygon class="cls-4" points="249.36 1122.91 245.22 1157.5 253.5 1157.5 249.36 1122.91"/><polygon class="cls-4" points="397.36 1013.91 393.22 1048.5 401.5 1048.5 397.36 1013.91"/><polygon class="cls-4" points="407.36 1003.91 403.22 1038.5 411.5 1038.5 407.36 1003.91"/><polygon class="cls-4" points="418.36 1016.91 414.22 1051.5 422.5 1051.5 418.36 1016.91"/><polygon class="cls-4" points="636.36 934.91 632.22 969.5 640.5 969.5 636.36 934.91"/><polygon class="cls-4" points="646.36 924.91 642.22 959.5 650.5 959.5 646.36 924.91"/><polygon class="cls-4" points="657.36 937.91 653.22 972.5 661.5 972.5 657.36 937.91"/><polygon class="cls-4" points="93.36 1271.91 89.22 1306.5 97.5 1306.5 93.36 1271.91"/><polygon class="cls-4" points="103.36 1261.91 99.22 1296.5 107.5 1296.5 103.36 1261.91"/><polygon class="cls-4" points="114.36 1274.91 110.22 1309.5 118.5 1309.5 114.36 1274.91"/><polygon class="cls-4" points="60.36 1067.91 56.22 1102.5 64.5 1102.5 60.36 1067.91"/><polygon class="cls-4" points="70.36 1057.91 66.22 1092.5 74.5 1092.5 70.36 1057.91"/><polygon class="cls-4" points="81.36 1070.91 77.22 1105.5 85.5 1105.5 81.36 1070.91"/><polygon class="cls-4" points="158.36 969.91 154.22 1004.5 162.5 1004.5 158.36 969.91"/><polygon class="cls-4" points="168.36 959.91 164.22 994.5 172.5 994.5 168.36 959.91"/><polygon class="cls-4" points="179.36 972.91 175.22 1007.5 183.5 1007.5 179.36 972.91"/><polygon class="cls-4" points="99.36 866.91 95.22 901.5 103.5 901.5 99.36 866.91"/><polygon class="cls-4" points="109.36 856.91 105.22 891.5 113.5 891.5 109.36 856.91"/><polygon class="cls-4" points="120.36 869.91 116.22 904.5 124.5 904.5 120.36 869.91"/><polygon class="cls-4" points="137.36 852.91 133.22 887.5 141.5 887.5 137.36 852.91"/><polygon class="cls-4" points="147.36 842.91 143.22 877.5 151.5 877.5 147.36 842.91"/><polygon class="cls-4" points="158.36 855.91 154.22 890.5 162.5 890.5 158.36 855.91"/><polygon class="cls-4" points="317.36 822.91 313.22 857.5 321.5 857.5 317.36 822.91"/><polygon class="cls-4" points="338.36 825.91 334.22 860.5 342.5 860.5 338.36 825.91"/><polygon class="cls-4" points="532.36 849.91 528.22 884.5 536.5 884.5 532.36 849.91"/><polygon class="cls-4" points="542.36 839.91 538.22 874.5 546.5 874.5 542.36 839.91"/><polygon class="cls-4" points="553.36 852.91 549.22 887.5 557.5 887.5 553.36 852.91"/><polygon class="cls-5" points="253.5 1050.5 271.5 1038.5 295.5 1051.5 279.5 1068.5 253.5 1050.5"/><polygon class="cls-5" points="521.5 1067.5 539.5 1055.5 563.5 1068.5 547.5 1085.5 521.5 1067.5"/><polygon class="cls-5" points="427.5 1226.5 445.5 1214.5 469.5 1227.5 453.5 1244.5 427.5 1226.5"/><polygon class="cls-5" points="665.5 957.5 683.5 945.5 707.5 958.5 691.5 975.5 665.5 957.5"/><polygon class="cls-5" points="112.5 921.5 130.5 909.5 154.5 922.5 138.5 939.5 112.5 921.5"/><polygon class="cls-6" points="89.5 1244.5 107.5 1232.5 131.5 1245.5 115.5 1262.5 89.5 1244.5"/><polygon class="cls-6" points="625.5 1268.5 643.5 1256.5 667.5 1269.5 651.5 1286.5 625.5 1268.5"/><polygon class="cls-6" points="357.5 1018.5 375.5 1006.5 399.5 1019.5 383.5 1036.5 357.5 1018.5"/><polygon class="cls-6" points="542.5 927.5 560.5 915.5 584.5 928.5 568.5 945.5 542.5 927.5"/><polygon class="cls-7" points="258.5 871.5 276.5 859.5 300.5 872.5 284.5 889.5 258.5 871.5"/><polygon class="cls-7" points="95.5 1064.5 113.5 1052.5 137.5 1065.5 121.5 1082.5 95.5 1064.5"/><polygon class="cls-7" points="269.5 1269.5 287.5 1257.5 311.5 1270.5 295.5 1287.5 269.5 1269.5"/><polygon class="cls-7" points="546.5 842.5 564.5 830.5 588.5 843.5 572.5 860.5 546.5 842.5"/></g></g></svg>