<svg xmlns="http://www.w3.org/2000/svg" xmlns:xlink="http://www.w3.org/1999/xlink" viewBox="0 0 750 1335"><defs><style>.cls-1{fill:url(#Unbenannter_Verlauf_98);}.cls-2{fill:url(#Unbenannter_Verlauf_4);}.cls-3{fill:#fbae17;}.cls-4{fill:#22b573;}</style><linearGradient id="Unbenannter_Verlauf_98" x1="375" y1="1335" x2="375" y2="794" gradientUnits="userSpaceOnUse"><stop offset="0" stop-color="#006837"/><stop offset="0.09" stop-color="#006f39"/><stop offset="0.38" stop-color="#008340"/><stop offset="0.69" stop-color="#008e44"/><stop offset="1" stop-color="#009245"/></linearGradient><linearGradient id="Unbenannter_Verlauf_4" x1="-10.88" y1="782.62" x2="760.88" y2="10.88" gradientUnits="userSpaceOnUse"><stop offset="0" stop-color="#fff"/><stop offset="1" stop-color="#0071bc"/></linearGradient></defs><title>background1Element 1</title><g id="Ebene_2" data-name="Ebene 2"><g id="Background"><rect class="cls-1" y="794" width="750" height="541"/><rect class="cls-2" width="750" height="793.5"/></g><g id="Sun"><circle class="cls-3" cx="610" cy="113.5" r="84"/></g><g id="Spring_details" data-name="Spring details"><polygon class="cls-4" points="120.96 1080.91 116.92 1115.5 125 1115.5 120.96 1080.91"/><polygon class="cls-4" points="129.98 1070.91 125.54 1108.91 134.42 1108.91 129.98 1070.91"/><polygon class="cls-4" points="139.96 1087.91 135.92 1122.5 144 1122.5 139.96 1087.91"/><polygon class="cls-4" points="147.56 1077.51 143.12 1115.5 152 1115.5 147.56 1077.51"/><polygon class="cls-4" points="63.96 1235.91 59.92 1270.5 68 1270.5 63.96 1235.91"/><polygon class="cls-4" points="72.98 1225.91 68.54 1263.91 77.42 1263.91 72.98 1225.91"/><polygon class="cls-4" points="82.96 1242.91 78.92 1277.5 87 1277.5 82.96 1242.91"/><polygon class="cls-4" points="90.56 1232.51 86.12 1270.5 95 1270.5 90.56 1232.51"/><polygon class="cls-4" points="133.96 1202.91 129.92 1237.5 138 1237.5 133.96 1202.91"/><polygon class="cls-4" points="142.98 1192.91 138.54 1230.91 147.42 1230.91 142.98 1192.91"/><polygon class="cls-4" points="152.96 1209.91 148.92 1244.5 157 1244.5 152.96 1209.91"/><polygon class="cls-4" points="160.56 1199.51 156.12 1237.5 165 1237.5 160.56 1199.51"/><polygon class="cls-4" points="37.96 1071.91 33.92 1106.5 42 1106.5 37.96 1071.91"/><polygon class="cls-4" points="46.98 1061.91 42.54 1099.91 51.42 1099.91 46.98 1061.91"/><polygon class="cls-4" points="56.96 1078.91 52.92 1113.5 61 1113.5 56.96 1078.91"/><polygon class="cls-4" points="64.56 1068.51 60.12 1106.5 69 1106.5 64.56 1068.51"/><polygon class="cls-4" points="64.96 1153.91 60.92 1188.5 69 1188.5 64.96 1153.91"/><polygon class="cls-4" points="73.98 1143.91 69.54 1181.91 78.42 1181.91 73.98 1143.91"/><polygon class="cls-4" points="83.96 1160.91 79.92 1195.5 88 1195.5 83.96 1160.91"/><polygon class="cls-4" points="91.56 1150.51 87.12 1188.5 96 1188.5 91.56 1150.51"/><polygon class="cls-4" points="211.96 1269.91 207.92 1304.5 216 1304.5 211.96 1269.91"/><polygon class="cls-4" points="220.98 1259.91 216.54 1297.91 225.42 1297.91 220.98 1259.91"/><polygon class="cls-4" points="230.96 1276.91 226.92 1311.5 235 1311.5 230.96 1276.91"/><polygon class="cls-4" points="238.56 1266.51 234.12 1304.5 243 1304.5 238.56 1266.51"/><polygon class="cls-4" points="207.96 1170.91 203.92 1205.5 212 1205.5 207.96 1170.91"/><polygon class="cls-4" points="216.98 1160.91 212.54 1198.91 221.42 1198.91 216.98 1160.91"/><polygon class="cls-4" points="226.96 1177.91 222.92 1212.5 231 1212.5 226.96 1177.91"/><polygon class="cls-4" points="234.56 1167.51 230.12 1205.5 239 1205.5 234.56 1167.51"/><polygon class="cls-4" points="202.96 1092.91 198.92 1127.5 207 1127.5 202.96 1092.91"/><polygon class="cls-4" points="211.98 1082.91 207.54 1120.91 216.42 1120.91 211.98 1082.91"/><polygon class="cls-4" points="221.96 1099.91 217.92 1134.5 226 1134.5 221.96 1099.91"/><polygon class="cls-4" points="229.56 1089.51 225.12 1127.5 234 1127.5 229.56 1089.51"/><polygon class="cls-4" points="285.96 1119.91 281.92 1154.5 290 1154.5 285.96 1119.91"/><polygon class="cls-4" points="294.98 1109.91 290.54 1147.91 299.42 1147.91 294.98 1109.91"/><polygon class="cls-4" points="304.96 1126.91 300.92 1161.5 309 1161.5 304.96 1126.91"/><polygon class="cls-4" points="312.56 1116.51 308.12 1154.5 317 1154.5 312.56 1116.51"/><polygon class="cls-4" points="349.96 1260.91 345.92 1295.5 354 1295.5 349.96 1260.91"/><polygon class="cls-4" points="358.98 1250.91 354.54 1288.91 363.42 1288.91 358.98 1250.91"/><polygon class="cls-4" points="368.96 1267.91 364.92 1302.5 373 1302.5 368.96 1267.91"/><polygon class="cls-4" points="376.56 1257.51 372.12 1295.5 381 1295.5 376.56 1257.51"/><polygon class="cls-4" points="386.96 1176.91 382.92 1211.5 391 1211.5 386.96 1176.91"/><polygon class="cls-4" points="395.98 1166.91 391.54 1204.91 400.42 1204.91 395.98 1166.91"/><polygon class="cls-4" points="405.96 1183.91 401.92 1218.5 410 1218.5 405.96 1183.91"/><polygon class="cls-4" points="413.56 1173.51 409.12 1211.5 418 1211.5 413.56 1173.51"/><polygon class="cls-4" points="285.96 1209.91 281.92 1244.5 290 1244.5 285.96 1209.91"/><polygon class="cls-4" points="294.98 1199.91 290.54 1237.91 299.42 1237.91 294.98 1199.91"/><polygon class="cls-4" points="304.96 1216.91 300.92 1251.5 309 1251.5 304.96 1216.91"/><polygon class="cls-4" points="312.56 1206.51 308.12 1244.5 317 1244.5 312.56 1206.51"/><polygon class="cls-4" points="331.96 1176.91 327.92 1211.5 336 1211.5 331.96 1176.91"/><polygon class="cls-4" points="340.98 1166.91 336.54 1204.91 345.42 1204.91 340.98 1166.91"/><polygon class="cls-4" points="350.96 1183.91 346.92 1218.5 355 1218.5 350.96 1183.91"/><polygon class="cls-4" points="358.56 1173.51 354.12 1211.5 363 1211.5 358.56 1173.51"/><polygon class="cls-4" points="460.96 1286.91 456.92 1321.5 465 1321.5 460.96 1286.91"/><polygon class="cls-4" points="469.98 1276.91 465.54 1314.91 474.42 1314.91 469.98 1276.91"/><polygon class="cls-4" points="479.96 1293.91 475.92 1328.5 484 1328.5 479.96 1293.91"/><polygon class="cls-4" points="487.56 1283.51 483.12 1321.5 492 1321.5 487.56 1283.51"/><polygon class="cls-4" points="565.96 1267.91 561.92 1302.5 570 1302.5 565.96 1267.91"/><polygon class="cls-4" points="574.98 1257.91 570.54 1295.91 579.42 1295.91 574.98 1257.91"/><polygon class="cls-4" points="584.96 1274.91 580.92 1309.5 589 1309.5 584.96 1274.91"/><polygon class="cls-4" points="592.56 1264.51 588.12 1302.5 597 1302.5 592.56 1264.51"/><polygon class="cls-4" points="505.96 1131.91 501.92 1166.5 510 1166.5 505.96 1131.91"/><polygon class="cls-4" points="514.98 1121.91 510.54 1159.91 519.42 1159.91 514.98 1121.91"/><polygon class="cls-4" points="524.96 1138.91 520.92 1173.5 529 1173.5 524.96 1138.91"/><polygon class="cls-4" points="532.56 1128.51 528.12 1166.5 537 1166.5 532.56 1128.51"/><polygon class="cls-4" points="686.96 970.91 682.92 1005.5 691 1005.5 686.96 970.91"/><polygon class="cls-4" points="695.98 960.91 691.54 998.91 700.42 998.91 695.98 960.91"/><polygon class="cls-4" points="705.96 977.91 701.92 1012.5 710 1012.5 705.96 977.91"/><polygon class="cls-4" points="713.56 967.51 709.12 1005.5 718 1005.5 713.56 967.51"/><polygon class="cls-4" points="627.96 1062.91 623.92 1097.5 632 1097.5 627.96 1062.91"/><polygon class="cls-4" points="636.98 1052.91 632.54 1090.91 641.42 1090.91 636.98 1052.91"/><polygon class="cls-4" points="646.96 1069.91 642.92 1104.5 651 1104.5 646.96 1069.91"/><polygon class="cls-4" points="654.56 1059.51 650.12 1097.5 659 1097.5 654.56 1059.51"/><polygon class="cls-4" points="668.96 1179.91 664.92 1214.5 673 1214.5 668.96 1179.91"/><polygon class="cls-4" points="677.98 1169.91 673.54 1207.91 682.42 1207.91 677.98 1169.91"/><polygon class="cls-4" points="687.96 1186.91 683.92 1221.5 692 1221.5 687.96 1186.91"/><polygon class="cls-4" points="695.56 1176.51 691.12 1214.5 700 1214.5 695.56 1176.51"/><polygon class="cls-4" points="591.96 1150.91 587.92 1185.5 596 1185.5 591.96 1150.91"/><polygon class="cls-4" points="600.98 1140.91 596.54 1178.91 605.42 1178.91 600.98 1140.91"/><polygon class="cls-4" points="610.96 1157.91 606.92 1192.5 615 1192.5 610.96 1157.91"/><polygon class="cls-4" points="618.56 1147.51 614.12 1185.5 623 1185.5 618.56 1147.51"/><polygon class="cls-4" points="683.96 1267.91 679.92 1302.5 688 1302.5 683.96 1267.91"/><polygon class="cls-4" points="692.98 1257.91 688.54 1295.91 697.42 1295.91 692.98 1257.91"/><polygon class="cls-4" points="702.96 1274.91 698.92 1309.5 707 1309.5 702.96 1274.91"/><polygon class="cls-4" points="710.56 1264.51 706.12 1302.5 715 1302.5 710.56 1264.51"/><polygon class="cls-4" points="456.96 1022.91 452.92 1057.5 461 1057.5 456.96 1022.91"/><polygon class="cls-4" points="465.98 1012.91 461.54 1050.91 470.42 1050.91 465.98 1012.91"/><polygon class="cls-4" points="475.96 1029.91 471.92 1064.5 480 1064.5 475.96 1029.91"/><polygon class="cls-4" points="483.56 1019.51 479.12 1057.5 488 1057.5 483.56 1019.51"/><polygon class="cls-4" points="406.96 1082.91 402.92 1117.5 411 1117.5 406.96 1082.91"/><polygon class="cls-4" points="415.98 1072.91 411.54 1110.91 420.42 1110.91 415.98 1072.91"/><polygon class="cls-4" points="425.96 1089.91 421.92 1124.5 430 1124.5 425.96 1089.91"/><polygon class="cls-4" points="433.56 1079.51 429.12 1117.5 438 1117.5 433.56 1079.51"/><polygon class="cls-4" points="556.96 978.91 552.92 1013.5 561 1013.5 556.96 978.91"/><polygon class="cls-4" points="565.98 968.91 561.54 1006.91 570.42 1006.91 565.98 968.91"/><polygon class="cls-4" points="575.96 985.91 571.92 1020.5 580 1020.5 575.96 985.91"/><polygon class="cls-4" points="583.56 975.51 579.12 1013.5 588 1013.5 583.56 975.51"/><polygon class="cls-4" points="327.96 990.91 323.92 1025.5 332 1025.5 327.96 990.91"/><polygon class="cls-4" points="336.98 980.91 332.54 1018.91 341.42 1018.91 336.98 980.91"/><polygon class="cls-4" points="346.96 997.91 342.92 1032.5 351 1032.5 346.96 997.91"/><polygon class="cls-4" points="354.56 987.51 350.12 1025.5 359 1025.5 354.56 987.51"/><polygon class="cls-4" points="447.96 894.91 443.92 929.5 452 929.5 447.96 894.91"/><polygon class="cls-4" points="456.98 884.91 452.54 922.91 461.42 922.91 456.98 884.91"/><polygon class="cls-4" points="466.96 901.91 462.92 936.5 471 936.5 466.96 901.91"/><polygon class="cls-4" points="474.56 891.51 470.12 929.5 479 929.5 474.56 891.51"/><polygon class="cls-4" points="138.96 965.91 134.92 1000.5 143 1000.5 138.96 965.91"/><polygon class="cls-4" points="147.98 955.91 143.54 993.91 152.42 993.91 147.98 955.91"/><polygon class="cls-4" points="157.96 972.91 153.92 1007.5 162 1007.5 157.96 972.91"/><polygon class="cls-4" points="165.56 962.51 161.12 1000.5 170 1000.5 165.56 962.51"/><polygon class="cls-4" points="224.98 922.91 220.54 960.91 229.42 960.91 224.98 922.91"/><polygon class="cls-4" points="234.96 939.91 230.92 974.5 239 974.5 234.96 939.91"/><polygon class="cls-4" points="242.56 929.51 238.12 967.5 247 967.5 242.56 929.51"/><polygon class="cls-4" points="116.98 858.91 112.54 896.91 121.42 896.91 116.98 858.91"/><polygon class="cls-4" points="126.96 875.91 122.92 910.5 131 910.5 126.96 875.91"/><polygon class="cls-4" points="134.56 865.51 130.12 903.5 139 903.5 134.56 865.51"/><polygon class="cls-4" points="21.98 842.91 17.54 880.91 26.42 880.91 21.98 842.91"/><polygon class="cls-4" points="31.96 859.91 27.92 894.5 36 894.5 31.96 859.91"/><polygon class="cls-4" points="39.56 849.51 35.12 887.5 44 887.5 39.56 849.51"/><polygon class="cls-4" points="318.98 842.91 314.54 880.91 323.42 880.91 318.98 842.91"/><polygon class="cls-4" points="328.96 859.91 324.92 894.5 333 894.5 328.96 859.91"/><polygon class="cls-4" points="336.56 849.51 332.12 887.5 341 887.5 336.56 849.51"/><polygon class="cls-4" points="229.98 813.91 225.54 851.91 234.42 851.91 229.98 813.91"/><polygon class="cls-4" points="239.96 830.91 235.92 865.5 244 865.5 239.96 830.91"/><polygon class="cls-4" points="247.56 820.51 243.12 858.5 252 858.5 247.56 820.51"/><polygon class="cls-4" points="402.98 944.91 398.54 982.91 407.42 982.91 402.98 944.91"/><polygon class="cls-4" points="412.96 961.91 408.92 996.5 417 996.5 412.96 961.91"/><polygon class="cls-4" points="420.56 951.51 416.12 989.5 425 989.5 420.56 951.51"/><polygon class="cls-4" points="609.98 839.91 605.54 877.91 614.42 877.91 609.98 839.91"/><polygon class="cls-4" points="619.96 856.91 615.92 891.5 624 891.5 619.96 856.91"/><polygon class="cls-4" points="627.56 846.51 623.12 884.5 632 884.5 627.56 846.51"/><polygon class="cls-4" points="547.98 820.91 543.54 858.91 552.42 858.91 547.98 820.91"/><polygon class="cls-4" points="557.96 837.91 553.92 872.5 562 872.5 557.96 837.91"/><polygon class="cls-4" points="565.56 827.51 561.12 865.5 570 865.5 565.56 827.51"/><polygon class="cls-4" points="579.98 806.91 575.54 844.91 584.42 844.91 579.98 806.91"/><polygon class="cls-4" points="589.96 823.91 585.92 858.5 594 858.5 589.96 823.91"/><polygon class="cls-4" points="597.56 813.51 593.12 851.5 602 851.5 597.56 813.51"/><polygon class="cls-4" points="689.98 806.91 685.54 844.91 694.42 844.91 689.98 806.91"/><polygon class="cls-4" points="699.96 823.91 695.92 858.5 704 858.5 699.96 823.91"/><polygon class="cls-4" points="707.56 813.51 703.12 851.5 712 851.5 707.56 813.51"/><polygon class="cls-4" points="627.98 936.91 623.54 974.91 632.42 974.91 627.98 936.91"/><polygon class="cls-4" points="637.96 953.91 633.92 988.5 642 988.5 637.96 953.91"/><polygon class="cls-4" points="645.56 943.51 641.12 981.5 650 981.5 645.56 943.51"/><polygon class="cls-4" points="609.98 949.91 605.54 987.91 614.42 987.91 609.98 949.91"/><polygon class="cls-4" points="619.96 966.91 615.92 1001.5 624 1001.5 619.96 966.91"/><polygon class="cls-4" points="627.56 956.51 623.12 994.5 632 994.5 627.56 956.51"/><polygon class="cls-4" points="392.98 804.91 388.54 842.91 397.42 842.91 392.98 804.91"/><polygon class="cls-4" points="402.96 821.91 398.92 856.5 407 856.5 402.96 821.91"/><polygon class="cls-4" points="410.56 811.51 406.12 849.5 415 849.5 410.56 811.51"/><polygon class="cls-4" points="254.96 1004.91 250.92 1039.5 259 1039.5 254.96 1004.91"/><polygon class="cls-4" points="263.98 994.91 259.54 1032.91 268.42 1032.91 263.98 994.91"/><polygon class="cls-4" points="273.96 1011.91 269.92 1046.5 278 1046.5 273.96 1011.91"/><polygon class="cls-4" points="281.56 1001.51 277.12 1039.5 286 1039.5 281.56 1001.51"/><polygon class="cls-4" points="345.96 1083.91 341.92 1118.5 350 1118.5 345.96 1083.91"/><polygon class="cls-4" points="354.98 1073.91 350.54 1111.91 359.42 1111.91 354.98 1073.91"/><polygon class="cls-4" points="364.96 1090.91 360.92 1125.5 369 1125.5 364.96 1090.91"/><polygon class="cls-4" points="372.56 1080.51 368.12 1118.5 377 1118.5 372.56 1080.51"/><polygon class="cls-4" points="11.96 969.91 7.92 1004.5 16 1004.5 11.96 969.91"/><polygon class="cls-4" points="20.98 959.91 16.54 997.91 25.42 997.91 20.98 959.91"/><polygon class="cls-4" points="30.96 976.91 26.92 1011.5 35 1011.5 30.96 976.91"/><polygon class="cls-4" points="38.56 966.51 34.12 1004.5 43 1004.5 38.56 966.51"/><circle class="cls-3" cx="690.5" cy="811" r="6.5"/><circle class="cls-3" cx="583.5" cy="976" r="6.5"/><circle class="cls-3" cx="474.5" cy="895" r="6.5"/><circle class="cls-3" cx="447.5" cy="895" r="6.5"/><circle class="cls-3" cx="615.5" cy="1161" r="6.5"/><circle class="cls-3" cx="433.5" cy="1081" r="6.5"/><circle class="cls-3" cx="354.5" cy="1186" r="6.5"/><circle class="cls-3" cx="694.5" cy="1261" r="6.5"/><circle class="cls-3" cx="165.5" cy="963" r="6.5"/><circle class="cls-3" cx="39.5" cy="851" r="6.5"/><circle class="cls-3" cx="134.5" cy="866" r="6.5"/><circle class="cls-3" cx="46.5" cy="1065" r="6.5"/><circle class="cls-3" cx="142.5" cy="1197" r="6.5"/><circle class="cls-3" cx="220.5" cy="1265" r="6.5"/><circle class="cls-3" cx="238.5" cy="1271" r="6.5"/><circle class="cls-3" cx="269.5" cy="1000" r="6.5"/><circle class="cls-3" cx="317.5" cy="843" r="6.5"/><circle class="cls-3" cx="328.5" cy="862" r="6.5"/></g></g></svg>