<svg xmlns="http://www.w3.org/2000/svg" xmlns:xlink="http://www.w3.org/1999/xlink" viewBox="0 0 750.5 1334.5"><defs><style>.cls-1{fill:#e59a51;}.cls-2{fill:url(#Unbenannter_Verlauf_4);}.cls-3{fill:#2864ea;}.cls-4{fill:#f4cb82;}.cls-5{fill:#f4cc71;}.cls-6{fill:#e2b852;}</style><linearGradient id="Unbenannter_Verlauf_4" x1="375.5" y1="1155.54" x2="375.5" y2="9.86" gradientUnits="userSpaceOnUse"><stop offset="0" stop-color="#fff"/><stop offset="1" stop-color="#0071bc"/></linearGradient></defs><title>background2Element 2</title><g id="Ebene_2" data-name="Ebene 2"><g id="Background"><rect class="cls-1" y="793.5" width="750" height="541"/><rect class="cls-2" x="0.5" width="750" height="793"/><rect class="cls-3" x="0.5" y="733" width="750" height="60"/></g><g id="Sun"><circle class="cls-4" cx="618.5" cy="114" r="84"/></g><g id="Summer_details" data-name="Summer details"><polygon class="cls-5" points="41.79 1297 35.09 1301.87 37.65 1309.76 45.94 1309.76 48.5 1301.87 41.79 1297"/><polygon class="cls-6" points="62.79 1307 56.09 1311.87 58.65 1319.76 66.94 1319.76 69.5 1311.87 62.79 1307"/><polygon class="cls-6" points="62.79 1306 56.09 1310.87 58.65 1318.76 66.94 1318.76 69.5 1310.87 62.79 1306"/><polygon class="cls-6" points="37.79 1272 31.09 1276.87 33.65 1284.76 41.94 1284.76 44.5 1276.87 37.79 1272"/><polygon class="cls-6" points="80.79 1284 74.09 1288.87 76.65 1296.76 84.94 1296.76 87.5 1288.87 80.79 1284"/><polygon class="cls-5" points="62.79 1273 56.09 1277.87 58.65 1285.76 66.94 1285.76 69.5 1277.87 62.79 1273"/><polygon class="cls-6" points="104.98 1143.34 96.7 1143.8 94.58 1151.81 101.55 1156.31 107.97 1151.07 104.98 1143.34"/><polygon class="cls-6" points="117.21 1163.12 108.93 1163.58 106.81 1171.6 113.78 1176.09 120.2 1170.85 117.21 1163.12"/><polygon class="cls-5" points="117.75 1162.28 109.47 1162.74 107.36 1170.76 114.32 1175.25 120.75 1170.01 117.75 1162.28"/><polygon class="cls-6" points="115.16 1120.16 106.89 1120.62 104.77 1128.63 111.73 1133.13 118.16 1127.89 115.16 1120.16"/><polygon class="cls-6" points="144.8 1153.55 136.52 1154.01 134.4 1162.02 141.37 1166.51 147.8 1161.28 144.8 1153.55"/><polygon class="cls-6" points="135.63 1134.55 127.36 1135.01 125.24 1143.02 132.2 1147.51 138.63 1142.28 135.63 1134.55"/><polygon class="cls-6" points="31.98 1095.34 23.7 1095.8 21.58 1103.81 28.55 1108.31 34.97 1103.07 31.98 1095.34"/><polygon class="cls-6" points="44.21 1115.12 35.93 1115.58 33.81 1123.6 40.78 1128.09 47.2 1122.85 44.21 1115.12"/><polygon class="cls-5" points="44.75 1114.28 36.47 1114.74 34.35 1122.76 41.32 1127.25 47.75 1122.01 44.75 1114.28"/><polygon class="cls-6" points="42.16 1072.16 33.89 1072.62 31.77 1080.63 38.73 1085.13 45.16 1079.89 42.16 1072.16"/><polygon class="cls-5" points="71.8 1105.55 63.52 1106.01 61.4 1114.02 68.37 1118.51 74.8 1113.28 71.8 1105.55"/><polygon class="cls-5" points="62.63 1086.55 54.36 1087.01 52.24 1095.02 59.2 1099.51 65.63 1094.28 62.63 1086.55"/><polygon class="cls-6" points="408.93 1254.09 411.94 1261.81 420.21 1261.34 422.32 1253.32 415.35 1248.84 408.93 1254.09"/><polygon class="cls-6" points="423.94 1236.32 426.95 1244.05 435.22 1243.57 437.33 1235.56 430.36 1231.07 423.94 1236.32"/><polygon class="cls-6" points="422.97 1236.07 425.98 1243.79 434.26 1243.32 436.36 1235.3 429.39 1230.82 422.97 1236.07"/><polygon class="cls-5" points="383.73 1251.6 386.74 1259.33 395.02 1258.85 397.13 1250.84 390.15 1246.35 383.73 1251.6"/><polygon class="cls-5" points="406.27 1213.07 409.28 1220.79 417.56 1220.32 419.66 1212.3 412.69 1207.82 406.27 1213.07"/><polygon class="cls-6" points="391.06 1227.68 394.06 1235.4 402.34 1234.93 404.45 1226.91 397.47 1222.43 391.06 1227.68"/><polygon class="cls-5" points="535.5 1104.93 530.07 1111.2 534.36 1118.3 542.43 1116.42 543.14 1108.16 535.5 1104.93"/><polygon class="cls-6" points="558.22 1109.92 552.79 1116.18 557.07 1123.28 565.15 1121.4 565.86 1113.14 558.22 1109.92"/><polygon class="cls-6" points="558 1108.94 552.57 1115.21 556.85 1122.31 564.92 1120.43 565.63 1112.17 558 1108.94"/><polygon class="cls-5" points="525.94 1081.49 520.51 1087.76 524.8 1094.85 532.87 1092.98 533.58 1084.72 525.94 1081.49"/><polygon class="cls-5" points="570.54 1083.44 565.12 1089.7 569.4 1096.8 577.47 1094.92 578.18 1086.66 570.54 1083.44"/><polygon class="cls-6" points="550.52 1076.8 545.09 1083.07 549.37 1090.16 557.45 1088.29 558.16 1080.03 550.52 1076.8"/><polygon class="cls-5" points="373.5 1038.93 368.07 1045.2 372.36 1052.3 380.43 1050.42 381.14 1042.16 373.5 1038.93"/><polygon class="cls-6" points="396.22 1043.92 390.79 1050.18 395.07 1057.28 403.15 1055.4 403.86 1047.14 396.22 1043.92"/><polygon class="cls-6" points="396 1042.94 390.57 1049.21 394.85 1056.31 402.92 1054.43 403.63 1046.17 396 1042.94"/><polygon class="cls-6" points="363.94 1015.49 358.51 1021.75 362.8 1028.85 370.87 1026.98 371.58 1018.72 363.94 1015.49"/><polygon class="cls-5" points="408.54 1017.44 403.12 1023.7 407.4 1030.8 415.47 1028.92 416.18 1020.66 408.54 1017.44"/><polygon class="cls-6" points="388.52 1010.8 383.09 1017.07 387.37 1024.16 395.45 1022.29 396.16 1014.03 388.52 1010.8"/><polygon class="cls-6" points="532.5 984.93 527.07 991.2 531.36 998.3 539.43 996.42 540.14 988.16 532.5 984.93"/><polygon class="cls-6" points="555.22 989.92 549.79 996.18 554.07 1003.28 562.15 1001.4 562.86 993.14 555.22 989.92"/><polygon class="cls-6" points="555 988.94 549.57 995.21 553.85 1002.31 561.92 1000.43 562.63 992.17 555 988.94"/><polygon class="cls-5" points="522.94 961.49 517.51 967.75 521.8 974.85 529.87 972.98 530.58 964.72 522.94 961.49"/><polygon class="cls-5" points="567.54 963.44 562.12 969.7 566.4 976.8 574.47 974.92 575.18 966.66 567.54 963.44"/><polygon class="cls-6" points="547.52 956.8 542.09 963.07 546.37 970.16 554.45 968.29 555.16 960.03 547.52 956.8"/><polygon class="cls-6" points="278.07 914.35 276.99 922.57 284.48 926.13 290.18 920.12 286.22 912.84 278.07 914.35"/><polygon class="cls-6" points="299.77 905.99 298.7 914.21 306.18 917.77 311.88 911.76 307.92 904.47 299.77 905.99"/><polygon class="cls-6" points="299.05 905.3 297.97 913.52 305.45 917.09 311.16 911.07 307.2 903.79 299.05 905.3"/><polygon class="cls-5" points="257.17 900.05 256.1 908.27 263.58 911.84 269.28 905.82 265.32 898.54 257.17 900.05"/><polygon class="cls-6" points="295.46 877.1 294.39 885.32 301.87 888.89 307.57 882.87 303.61 875.59 295.46 877.1"/><polygon class="cls-6" points="275.1 882.6 274.02 890.82 281.5 894.38 287.21 888.37 283.25 881.08 275.1 882.6"/><polygon class="cls-6" points="263.07 1109.35 261.99 1117.57 269.48 1121.13 275.18 1115.12 271.22 1107.84 263.07 1109.35"/><polygon class="cls-6" points="284.77 1100.99 283.7 1109.21 291.18 1112.77 296.88 1106.76 292.92 1099.47 284.77 1100.99"/><polygon class="cls-5" points="284.05 1100.3 282.97 1108.52 290.45 1112.09 296.16 1106.07 292.2 1098.79 284.05 1100.3"/><polygon class="cls-5" points="242.17 1095.05 241.09 1103.27 248.58 1106.84 254.28 1100.82 250.32 1093.54 242.17 1095.05"/><polygon class="cls-5" points="280.46 1072.1 279.39 1080.32 286.87 1083.89 292.57 1077.87 288.61 1070.59 280.46 1072.1"/><polygon class="cls-6" points="260.1 1077.6 259.02 1085.82 266.5 1089.38 272.21 1083.37 268.25 1076.08 260.1 1077.6"/><polygon class="cls-5" points="160.07 940.35 158.99 948.57 166.47 952.13 172.18 946.12 168.22 938.84 160.07 940.35"/><polygon class="cls-6" points="181.77 931.99 180.7 940.21 188.18 943.77 193.88 937.76 189.92 930.47 181.77 931.99"/><polygon class="cls-5" points="181.05 931.3 179.97 939.52 187.45 943.09 193.16 937.07 189.2 929.79 181.05 931.3"/><polygon class="cls-6" points="139.17 926.05 138.09 934.27 145.58 937.84 151.28 931.82 147.32 924.54 139.17 926.05"/><polygon class="cls-5" points="177.46 903.1 176.39 911.32 183.87 914.89 189.57 908.87 185.61 901.59 177.46 903.1"/><polygon class="cls-6" points="157.1 908.6 156.02 916.82 163.5 920.38 169.21 914.37 165.25 907.08 157.1 908.6"/><polygon class="cls-5" points="36.07 831.35 34.99 839.57 42.48 843.13 48.18 837.12 44.22 829.84 36.07 831.35"/><polygon class="cls-6" points="57.77 822.99 56.7 831.21 64.18 834.77 69.88 828.76 65.92 821.47 57.77 822.99"/><polygon class="cls-6" points="57.05 822.3 55.97 830.52 63.45 834.09 69.16 828.07 65.2 820.79 57.05 822.3"/><polygon class="cls-6" points="15.17 817.05 14.1 825.27 21.58 828.84 27.28 822.82 23.32 815.54 15.17 817.05"/><polygon class="cls-5" points="53.46 794.1 52.39 802.32 59.87 805.89 65.57 799.87 61.61 792.59 53.46 794.1"/><polygon class="cls-6" points="33.1 799.6 32.02 807.82 39.5 811.38 45.21 805.37 41.25 798.08 33.1 799.6"/><polygon class="cls-6" points="676.07 918.35 674.99 926.57 682.48 930.13 688.18 924.12 684.22 916.84 676.07 918.35"/><polygon class="cls-6" points="697.77 909.99 696.7 918.21 704.18 921.77 709.88 915.76 705.92 908.47 697.77 909.99"/><polygon class="cls-5" points="697.05 909.3 695.97 917.52 703.45 921.09 709.16 915.07 705.2 907.79 697.05 909.3"/><polygon class="cls-6" points="655.17 904.05 654.1 912.27 661.58 915.84 667.28 909.82 663.32 902.54 655.17 904.05"/><polygon class="cls-6" points="693.46 881.1 692.39 889.32 699.87 892.89 705.57 886.87 701.61 879.59 693.46 881.1"/><polygon class="cls-6" points="673.1 886.6 672.02 894.82 679.5 898.38 685.21 892.37 681.25 885.08 673.1 886.6"/><polygon class="cls-5" points="603.07 854.35 601.99 862.57 609.48 866.13 615.18 860.12 611.22 852.84 603.07 854.35"/><polygon class="cls-6" points="624.77 845.99 623.7 854.21 631.18 857.77 636.88 851.76 632.92 844.47 624.77 845.99"/><polygon class="cls-6" points="624.05 845.3 622.97 853.52 630.45 857.09 636.16 851.07 632.2 843.79 624.05 845.3"/><polygon class="cls-6" points="582.17 840.05 581.1 848.27 588.58 851.84 594.28 845.82 590.32 838.54 582.17 840.05"/><polygon class="cls-5" points="620.46 817.1 619.39 825.32 626.87 828.89 632.57 822.87 628.61 815.59 620.46 817.1"/><polygon class="cls-6" points="600.1 822.6 599.02 830.82 606.5 834.38 612.21 828.37 608.25 821.08 600.1 822.6"/><polygon class="cls-6" points="654.07 864.35 652.99 872.57 660.48 876.13 666.18 870.12 662.22 862.84 654.07 864.35"/><polygon class="cls-6" points="675.77 855.99 674.7 864.21 682.18 867.77 687.88 861.76 683.92 854.47 675.77 855.99"/><polygon class="cls-6" points="675.05 855.3 673.97 863.52 681.45 867.09 687.16 861.07 683.2 853.79 675.05 855.3"/><polygon class="cls-5" points="633.17 850.05 632.1 858.27 639.58 861.84 645.28 855.82 641.32 848.54 633.17 850.05"/><polygon class="cls-5" points="671.46 827.1 670.39 835.32 677.87 838.89 683.57 832.87 679.61 825.59 671.46 827.1"/><polygon class="cls-6" points="651.1 832.6 650.02 840.82 657.5 844.38 663.21 838.37 659.25 831.08 651.1 832.6"/><polygon class="cls-6" points="693.07 1249.35 691.99 1257.57 699.48 1261.13 705.18 1255.12 701.22 1247.84 693.07 1249.35"/><polygon class="cls-6" points="714.77 1240.99 713.7 1249.21 721.18 1252.77 726.88 1246.76 722.92 1239.47 714.77 1240.99"/><polygon class="cls-5" points="714.05 1240.3 712.97 1248.52 720.45 1252.09 726.16 1246.07 722.2 1238.79 714.05 1240.3"/><polygon class="cls-6" points="672.17 1235.05 671.1 1243.27 678.58 1246.84 684.28 1240.82 680.32 1233.54 672.17 1235.05"/><polygon class="cls-5" points="544.07 1281.35 542.99 1289.57 550.48 1293.13 556.18 1287.12 552.22 1279.84 544.07 1281.35"/><polygon class="cls-6" points="523.17 1267.05 522.1 1275.27 529.58 1278.84 535.28 1272.82 531.32 1265.54 523.17 1267.05"/><polygon class="cls-5" points="654.3 1131.26 648.57 1137.25 652.49 1144.55 660.65 1143.08 661.77 1134.86 654.3 1131.26"/><polygon class="cls-6" points="645.93 1107.37 640.19 1113.35 644.12 1120.66 652.27 1119.18 653.39 1110.97 645.93 1107.37"/><polygon class="cls-5" points="401.31 883.26 395.57 889.25 399.49 896.55 407.65 895.08 408.77 886.86 401.31 883.26"/><polygon class="cls-6" points="392.93 859.37 387.19 865.35 391.12 872.66 399.27 871.18 400.39 862.97 392.93 859.37"/><polygon class="cls-6" points="430.31 861.26 424.57 867.25 428.49 874.55 436.65 873.08 437.77 864.86 430.31 861.26"/><polygon class="cls-6" points="421.93 837.37 416.19 843.35 420.12 850.66 428.27 849.18 429.39 840.97 421.93 837.37"/><polygon class="cls-6" points="206.31 1015.26 200.57 1021.25 204.49 1028.55 212.65 1027.08 213.77 1018.86 206.31 1015.26"/><polygon class="cls-6" points="197.93 991.37 192.19 997.35 196.12 1004.66 204.27 1003.18 205.39 994.97 197.93 991.37"/><polygon class="cls-5" points="710.46 1212.1 709.39 1220.32 716.87 1223.89 722.57 1217.87 718.61 1210.59 710.46 1212.1"/><polygon class="cls-6" points="690.1 1217.6 689.02 1225.82 696.5 1229.38 702.21 1223.37 698.25 1216.08 690.1 1217.6"/></g></g></svg>