<svg xmlns="http://www.w3.org/2000/svg" viewBox="0 0 1267.32 1947.27"><defs><style>.cls-1{fill:#63300f;}</style></defs><title>Element 5baum_monat3</title><g id="Ebene_2" data-name="Ebene 2"><g id="Ebene_3" data-name="Ebene 3"><path class="cls-1" d="M1069.49,379.76c-74,6.46-184.17,16.2-260.49,47.81a6,6,0,0,1-7.56-8.38c20.38-38.44,44.87-72.09,73.25-94.27,67.63-52.84,101.38-84,101.38-84C1018.19,201.07,1100.54,6.31,1099.48.28,1098-8,1004.87,166.88,943.21,209.21,876.58,254.95,818.29,282.86,788,314.66c-61.77,64.76-92,133.47-105.45,169.89-33.26,90.09-23.09,143.31-41,146.46-16.42,2.88-30.61-40.81-58.28-107.09a6,6,0,0,1-.46-2.3c0-11.39-.13-24.93.19-40.38,2.59-127,32-243.25,50.24-315.63,21.52-85.17,39.53-127.19,37-131.66-3.68-6.4-43.62,74.49-76.82,172.6-19.92,58.88-44.77,132.32-52.77,201.28A6,6,0,0,1,529.35,410c-12.69-23.3-27.07-47.43-43.49-71.86C397.63,206.83,197.4,53.15,191.42,58.49c-3.89,3.48,126.81,116.66,184.71,211,19.14,31.19,42.94,70.19,68.45,123.86C466.2,438.81,482.1,485.11,513,575.86,547.17,676,548.28,689.19,542.36,693.2c-15.75,10.66-159.59-85.14-256-144.56C189.35,488.81,3,428.09,0,435.27c-2.29,5.47,139.62,65.49,214.67,119.89C290.89,610.39,339,667,361.37,695.31,370.2,706.52,388,718.78,408,732.77a6,6,0,0,1-3,10.9c-44.1,2.83-87.82,31.54-131.64,51.14-77,34.42-141.74,84.83-137.32,92.84,3.08,5.59,36.44-15.79,102.51-32.88,56.14-14.52,146.28-37.84,241.76-11.6,9.75,2.68,18.46,5.57,26.05,8.07a6,6,0,0,1,3.52,3.09c27.95,58.06,63.34,131.26,65,217,2.78,139.43,4.49,225.33-13,355.27-25,185.41-37.51,278.12-101,322.68-41.3,29-98.53,40.4-104.3,81.48-4.1,29.2,20.39,54.86,29,63.89C440.73,1952.38,533.24,1949,596,1945.8c117.48-5.91,168.49-43.69,233.18-22.75,3.15,1,30.85,10.11,68.25,11.37,28.69,1,47.57,1.34,62.56-11.37,22.78-19.32,28.22-61.81,11.37-79.62-17.88-18.91-48.49,3-79.62-11.37-42.63-19.73-48.79-90.27-51.19-113.75-17.75-174-71.2-143.48-108.06-443.61-28.4-231.28-42.6-346.92,5.69-426.55q5.75-9.49,11.62-18.65a6,6,0,0,1,6.78-2.48c45.92,14.1,84.63,34.31,113.52,49.39,60.49,31.58,88.16,59.94,92.43,55.19,6.11-6.8-45.59-70.54-112.79-121.46-15.83-12-31.28-25.5-47-38.12a6,6,0,0,1-.4-9c37.11-35.66,84.61-58.47,155.79-57.91,30.39.24,240-36.27,242-43.61C1203,651.1,987.82,648,924.81,649.2c-52.49,1-108.66,16.08-180,64.56-27.66,18.81-19.49-96.07,20.18-209.91a6,6,0,0,1,3.31-3.54c12-5.11,27.13-12.1,45.44-19.69,117.38-48.66,235.59-68.45,309.22-80.78,86.64-14.5,141.12-53.14,144.19-57.3C1271.57,336.58,1172.67,370.75,1069.49,379.76Z"/></g></g></svg>