<svg xmlns="http://www.w3.org/2000/svg" viewBox="0 0 603.95 1220.64"><defs><style>.cls-1{fill:#63300f;stroke:#000;stroke-miterlimit:10;}</style></defs><title>Element 3baum_monat1</title><g id="Ebene_2" data-name="Ebene 2"><g id="Ebene_3" data-name="Ebene 3"><path class="cls-1" d="M133.8,1185.09c37,38.77,99.09,35.76,141.26,34.36,78.44-2.6,105.23-15.09,152-12,2.22.15,25.21,3.47,50.32,4.32,19.26.65,18.62,4.21,28.68-4.32,15.29-13,10.81-43-.5-55-12-12.69-11.1.28-32-9.4-28.61-13.25-32.75-60.6-34.36-76.36-11.91-116.81-47.8-96.32-72.54-297.79-19.07-155.26-28.6-232.89,3.82-286.34C403.11,428.83,478,359.8,557.58,360.42c20.4.16,44.47,4.93,45.81,0,1.91-7-45.51-35.14-87.81-34.36-35.23.65-74.3,20.91-122.17,53.45-30.13,20.49-27-141.92,48.72-217.16,40.5-40.26,84-61.09,84-61.09C556.87,86.54,548.3,84,547.59,80c-1-5.55-37.28,4.74-82,19-51.69,16.48-76.64,59.65-97,81-41.46,43.47-26.43,34.06-35.46,58.52-22.32,60.47-15.5,96.2-27.53,98.32-19.65,3.45-34.55-92.53-104.48-196.6C141.88,52.07,69.34-2.92,65.33.67,62.72,3,88.58,30.81,127.45,94.13c12.85,20.93,28.82,47.12,45.95,83.15,14.51,30.53,25.19,61.61,45.95,122.53C242.27,367,243,375.89,239,378.58c-10.57,7.16-40.33-38.88-105-78.77C68.87,259.64,2.57,246.85.55,251.67c-1.54,3.67,35,16,85.33,52.51a497.89,497.89,0,0,1,98.46,94.09c15.39,19.51,36.37,46.11,52.51,83.15,18.37,42.13,22.65,79.83,24.07,151,1.86,93.6,3,151.26-8.75,238.5-16.78,124.47-25.18,186.7-67.83,216.62-27.72,19.45-66.14,27.12-70,54.7C111.57,1161.81,128,1179,133.8,1185.09Z"/></g></g></svg>