<svg xmlns="http://www.w3.org/2000/svg" viewBox="0 0 909.88 1552.21"><defs><style>.cls-1{fill:#63300f;stroke:#000;stroke-miterlimit:10;}</style></defs><title>Element 4baum_monat2</title><g id="Ebene_2" data-name="Ebene 2"><g id="Ebene_3" data-name="Ebene 3"><path class="cls-1" d="M235.42,1508.46c45.28,47.43,121.26,44.63,172.81,42,96.47-4.85,138.36-35.88,191.49-18.68a211.46,211.46,0,0,0,56,9.34c23.56.79,39.07,1.1,51.38-9.34,18.71-15.87,23.18-50.76,9.34-65.39-14.68-15.53-39.82,2.5-65.39-9.34-35-16.2-40.07-74.13-42-93.41-14.58-142.9-58.47-117.83-88.74-364.3C497,809.45,485.34,714.49,525,649.09c39.89-65.77,131.52-150.22,228.85-149.46,25,.2,153.86-25,155.5-31,2.33-8.56-156.8.38-208.54,1.33-43.1.8-89.23,13.2-147.79,53-36.86,25.06-8.52-211.54,84.07-303.58,49.54-49.25,102.75-74.73,102.75-74.73,37.61-18,116.8-58.47,115.93-63.42-1.19-6.78-107.71,25.68-162.41,43.13-63.23,20.16-104.69,78.76-129.59,104.87C513,282.44,490.31,320.58,479.27,350.5c-27.31,74-19.1,117-33.68,120.27-28.76,6.47-32.71-91.55-95.83-229.51C295.71,123.12,80.88-3.77,76,.61,72.78,3.47,204.21,101.8,251.76,179.26c15.72,25.61,27.05,47.93,48,92,17.75,37.34,22.6,49.48,48,124,28,82.26,21.27,123.29,16.41,126.59-12.94,8.76-49.34-47.57-128.48-96.36C156,376.35,3,326.49.52,332.38c-1.88,4.5,114.66,53.78,176.29,98.46a609.07,609.07,0,0,1,120.45,115.1c18.83,23.87,44.49,56.41,64.24,101.71,22.47,51.54,27.71,97.66,29.44,184.69,2.28,114.5,3.68,185-10.71,291.76-20.53,152.26-30.8,228.39-83,265-33.92,23.79-80.91,33.18-85.65,66.92C208.23,1480,228.35,1501.05,235.42,1508.46Z"/></g></g></svg>