<svg xmlns="http://www.w3.org/2000/svg" xmlns:xlink="http://www.w3.org/1999/xlink" viewBox="0 0 751 1335"><defs><style>.cls-1{fill:url(#Unbenannter_Verlauf_137);}.cls-2{fill:url(#Unbenannter_Verlauf_141);}.cls-3{fill:#f7931e;opacity:0.76;}.cls-4{fill:#fff;}</style><linearGradient id="Unbenannter_Verlauf_137" x1="231.89" y1="1315.58" x2="520.33" y2="813.03" gradientUnits="userSpaceOnUse"><stop offset="0" stop-color="#ccc"/><stop offset="0.28" stop-color="#dbdbdb"/><stop offset="1" stop-color="#fff"/></linearGradient><linearGradient id="Unbenannter_Verlauf_141" x1="375" y1="7.25" x2="375" y2="797.45" gradientUnits="userSpaceOnUse"><stop offset="0" stop-color="#8eabe2"/><stop offset="0.04" stop-color="#90b1e5"/><stop offset="0.28" stop-color="#9cccf0"/><stop offset="0.51" stop-color="#a4e0f8"/><stop offset="0.75" stop-color="#a8ebfd"/><stop offset="1" stop-color="#aaefff"/></linearGradient></defs><title>background4Element 4</title><g id="Ebene_2" data-name="Ebene 2"><g id="Background"><rect class="cls-1" x="1" y="794" width="750" height="541"/><rect class="cls-2" width="750" height="793.5"/></g><g id="Sun"><circle class="cls-3" cx="615.5" cy="113.5" r="84"/></g><g id="Winter_details" data-name="Winter details"><polygon class="cls-4" points="129.29 155.41 143.08 160.5 130.02 167.25 132.51 181.74 120.14 173.81 108.83 183.21 109.52 168.52 95.72 163.43 108.78 156.68 106.29 142.19 118.67 150.13 129.97 140.73 129.29 155.41"/><polygon class="cls-4" points="129.78 44.13 143.57 49.22 130.51 55.97 133 70.46 120.62 62.52 109.32 71.92 110 57.24 96.21 52.15 109.27 45.4 106.78 30.91 119.16 38.84 130.46 29.44 129.78 44.13"/><polygon class="cls-4" points="166.28 281.98 180.07 287.07 167.01 293.82 169.5 308.31 157.12 300.37 145.82 309.77 146.5 295.09 132.71 290 145.77 283.25 143.28 268.76 155.66 276.69 166.96 267.29 166.28 281.98"/><polygon class="cls-4" points="320.55 114.66 329.04 126.66 314.45 124.83 308.3 138.19 302.59 124.64 287.95 125.99 296.83 114.27 288.34 102.27 302.92 104.1 309.07 90.74 314.79 104.29 329.43 102.94 320.55 114.66"/><polygon class="cls-4" points="479.27 91.3 487.76 103.3 473.17 101.47 467.02 114.83 461.31 101.28 446.67 102.63 455.55 90.91 447.06 78.91 461.65 80.73 467.8 67.38 473.51 80.93 488.15 79.58 479.27 91.3"/><polygon class="cls-4" points="368.44 234.32 376.93 246.32 362.34 244.49 356.19 257.85 350.48 244.3 335.83 245.65 344.71 233.93 336.22 221.93 350.81 223.75 356.96 210.4 362.67 223.95 377.31 222.6 368.44 234.32"/><polygon class="cls-4" points="602.55 351.66 611.04 363.66 596.45 361.83 590.3 375.19 584.59 361.64 569.95 362.99 578.83 351.27 570.34 339.27 584.92 341.1 591.08 327.74 596.79 341.29 611.43 339.94 602.55 351.66"/><polygon class="cls-4" points="651.27 359.3 659.76 371.3 645.17 369.47 639.02 382.83 633.31 369.28 618.67 370.63 627.55 358.91 619.06 346.9 633.65 348.73 639.8 335.38 645.51 348.93 660.15 347.58 651.27 359.3"/><polygon class="cls-4" points="559.43 552.32 567.92 564.32 553.34 562.49 547.19 575.85 541.48 562.3 526.84 563.65 535.71 551.93 527.22 539.93 541.81 541.75 547.96 528.4 553.67 541.95 568.31 540.6 559.43 552.32"/><polygon class="cls-4" points="221.55 600.66 230.04 612.66 215.45 610.84 209.3 624.19 203.59 610.64 188.95 611.99 197.83 600.27 189.34 588.27 203.92 590.1 210.07 576.74 215.79 590.29 230.43 588.94 221.55 600.66"/><polygon class="cls-4" points="438.27 488.3 446.76 500.3 432.17 498.47 426.02 511.83 420.31 498.28 405.67 499.63 414.55 487.91 406.06 475.9 420.65 477.73 426.8 464.38 432.51 477.93 447.15 476.58 438.27 488.3"/><polygon class="cls-4" points="200.44 709.32 208.93 721.32 194.34 719.49 188.19 732.85 182.47 719.3 167.84 720.65 176.71 708.93 168.22 696.93 182.81 698.75 188.96 685.4 194.67 698.95 209.31 697.6 200.44 709.32"/><polygon class="cls-4" points="299.55 349.66 308.04 361.66 293.45 359.83 287.3 373.19 281.59 359.64 266.95 360.99 275.83 349.27 267.34 337.27 281.92 339.1 288.07 325.74 293.79 339.29 308.43 337.94 299.55 349.66"/><polygon class="cls-4" points="518.27 288.3 526.76 300.3 512.17 298.47 506.02 311.83 500.31 298.28 485.67 299.63 494.55 287.91 486.06 275.9 500.65 277.73 506.8 264.38 512.51 277.93 527.15 276.58 518.27 288.3"/><polygon class="cls-4" points="314.44 393.32 322.93 405.32 308.34 403.49 302.19 416.85 296.48 403.3 281.83 404.65 290.71 392.93 282.22 380.93 296.81 382.75 302.96 369.4 308.67 382.95 323.31 381.6 314.44 393.32"/><polygon class="cls-4" points="83.55 420.66 92.04 432.66 77.45 430.83 71.3 444.19 65.59 430.64 50.95 431.99 59.83 420.27 51.34 408.27 65.92 410.1 72.08 396.74 77.79 410.29 92.43 408.94 83.55 420.66"/><polygon class="cls-4" points="242.27 492.3 250.76 504.3 236.17 502.47 230.02 515.83 224.31 502.28 209.67 503.63 218.55 491.91 210.06 479.9 224.65 481.73 230.8 468.38 236.51 481.93 251.15 480.58 242.27 492.3"/><polygon class="cls-4" points="221.44 397.32 229.93 409.32 215.34 407.49 209.19 420.85 203.47 407.3 188.84 408.65 197.71 396.93 189.22 384.93 203.81 386.75 209.96 373.4 215.67 386.95 230.31 385.6 221.44 397.32"/><polygon class="cls-4" points="389.55 600.66 398.04 612.66 383.45 610.84 377.3 624.19 371.59 610.64 356.95 611.99 365.83 600.27 357.34 588.27 371.92 590.1 378.07 576.74 383.79 590.29 398.43 588.94 389.55 600.66"/><polygon class="cls-4" points="655.27 492.3 663.76 504.3 649.17 502.47 643.02 515.83 637.31 502.28 622.67 503.63 631.55 491.91 623.06 479.9 637.65 481.73 643.8 468.38 649.51 481.93 664.15 480.58 655.27 492.3"/><polygon class="cls-4" points="621.43 709.32 629.92 721.32 615.34 719.49 609.19 732.85 603.48 719.3 588.84 720.65 597.71 708.93 589.22 696.93 603.81 698.75 609.96 685.4 615.67 698.95 630.31 697.6 621.43 709.32"/><polygon class="cls-4" points="389.55 682.66 398.04 694.66 383.45 692.84 377.3 706.19 371.59 692.64 356.95 693.99 365.83 682.27 357.34 670.27 371.92 672.1 378.07 658.74 383.79 672.29 398.43 670.94 389.55 682.66"/><polygon class="cls-4" points="582.27 667.3 590.76 679.3 576.17 677.47 570.02 690.83 564.31 677.28 549.67 678.63 558.55 666.91 550.06 654.9 564.65 656.73 570.8 643.38 576.51 656.93 591.15 655.58 582.27 667.3"/><polygon class="cls-4" points="83.44 655.32 91.92 667.32 77.34 665.49 71.19 678.85 65.47 665.3 50.84 666.65 59.71 654.93 51.22 642.93 65.81 644.75 71.96 631.4 77.67 644.95 92.31 643.6 83.44 655.32"/></g></g></svg>