<svg xmlns="http://www.w3.org/2000/svg" viewBox="0 0 490.45 1124.96"><defs><style>.cls-1{fill:#bec137;}</style></defs><title>Blatt 2</title><g id="Ebene_2" data-name="Ebene 2"><g id="Ebene_2-2" data-name="Ebene 2"><path class="cls-1" d="M203.57,973.84s-5.22-64,53.22-67.09,126.26-30.49,164.86-93,78.26-163.14,66.78-326.28-68-281.12-125.36-346.69c-45-51.4-88-114.64-104.44-139.55a2.68,2.68,0,0,0-4.91,1.86c2.91,19.36,7.1,57.14,1.16,86.43-8.35,41.17-20,76.23-43,117.4-22.77,40.83-119.43,176.14-121,178.36l0,.06C89.45,387.67,8.4,521.55,3.23,583.52-2,646-15.54,755.72,106.39,870a1.9,1.9,0,0,0,.24.2c2.1,1.5,39,28,55.21,48.72,7.89,10.09,12.6,16.47,15.38,20.4a21.72,21.72,0,0,1,3.54,13.06c-.94,29.75-3.65,140.62,7.16,161.7s31.64,5.82,37.21,1.21a2.54,2.54,0,0,0,.8-2.88C222,1101.43,200.73,1037.64,203.57,973.84Z"/></g></g></svg>